<svg xmlns="http://www.w3.org/2000/svg" version="1.1" xmlns:xlink="http://www.w3.org/1999/xlink" xmlns:svgjs="http://svgjs.dev/svgjs" width="1000" height="1000" viewBox="0 0 1000 1000"><rect width="1000" height="1000" fill="#ffffff"></rect><g transform="matrix(0.7,0,0,0.7,150,281.25)"><svg viewBox="0 0 512 320" data-background-color="#000000" preserveAspectRatio="xMidYMid meet" height="625" width="1000" xmlns="http://www.w3.org/2000/svg" xmlns:xlink="http://www.w3.org/1999/xlink"><g id="tight-bounds" transform="matrix(1,0,0,1,0,0)"><svg viewBox="0 0 512 320" height="320" width="512"><g><svg></svg></g><g><svg viewBox="0 0 512 320" height="320" width="512"><g><path xmlns="http://www.w3.org/2000/svg" d="M96 160c0-88.366 71.634-160 160-160 88.366 0 160 71.634 160 160 0 88.366-71.634 160-160 160-88.366 0-160-71.634-160-160z" fill="#89939e" fill-rule="nonzero" stroke="none" stroke-width="1" stroke-linecap="butt" stroke-linejoin="miter" stroke-miterlimit="10" stroke-dasharray="" stroke-dashoffset="0" font-family="none" font-weight="none" font-size="none" text-anchor="none" style="mix-blend-mode: normal" data-fill-palette-color="tertiary"></path></g><g transform="matrix(1,0,0,1,216.3503626534707,80)"><svg viewBox="0 0 79.29927469305859 160" height="160" width="79.29927469305859"><g><svg viewBox="0 0 208.98519752677015 421.6637760396838" height="160" width="79.29927469305859"><g transform="matrix(1,0,0,1,19.951661252555724,171.11900796991767)"><svg viewBox="0 0 169.0818750216587 250.54476806976612" height="250.54476806976612" width="169.0818750216587"><g><svg viewBox="0 0 169.0818750216587 250.54476806976612" height="250.54476806976612" width="169.0818750216587"><g><svg viewBox="0 0 169.0818750216587 159.52" height="159.52" width="169.0818750216587"><g transform="matrix(1,0,0,1,0,0)"><svg width="169.0818750216587" viewBox="19.346385955810547 -6.227409362792969 34.233489990234375 32.29753112792969" height="159.52" data-palette-color="#000000"><path d="M34.193 26.064l-12.915-1.086c-0.824-0.069-1.361-0.325-1.611-0.768-0.25-0.443-0.354-0.92-0.311-1.431v0l1.929-22.949c0.089-1.063 0.775-1.54 2.058-1.432v0c1.329 0.112 1.948 0.699 1.859 1.762v0l-1.819 21.623 11.091 0.933c0.797 0.067 1.15 0.642 1.06 1.725v0c-0.05 1.153-0.497 1.694-1.341 1.623zM49.748 18.263l-8.462-22.063c-0.382-0.996 0.037-1.728 1.258-2.195v0c1.245-0.477 2.058-0.218 2.44 0.777v0l8.461 22.063c0.382 0.996-0.05 1.733-1.294 2.211v0c-1.22 0.468-2.021 0.204-2.403-0.793zM31.819-0.169l8.461 22.063c0.382 0.996-0.05 1.733-1.294 2.211v0c-1.22 0.468-2.021 0.204-2.403-0.793v0l-8.462-22.063c-0.382-0.996 0.037-1.728 1.258-2.195v0c1.245-0.477 2.058-0.218 2.44 0.777zM43.134 7.552v0c0.279 0.728 0.265 1.437-0.042 2.126-0.307 0.689-0.822 1.172-1.543 1.448v0c-0.71 0.272-1.409 0.255-2.098-0.052-0.689-0.307-1.173-0.825-1.453-1.553v0c-0.277-0.722-0.262-1.428 0.045-2.116 0.307-0.689 0.815-1.169 1.525-1.442v0c0.722-0.277 1.428-0.262 2.117 0.045 0.689 0.307 1.172 0.822 1.449 1.544z" opacity="1" transform="matrix(1,0,0,1,0,0)" fill="#000000" class="undefined-text-0" data-fill-palette-color="quaternary" id="text-0"></path></svg></g></svg></g><g transform="matrix(1,0,0,1,29.58932812879027,239.03914098008647)"><svg viewBox="0 0 109.90321876407816 11.505627089679637" height="11.505627089679637" width="109.90321876407816"><g transform="matrix(1,0,0,1,0,0)"><svg width="109.90321876407816" viewBox="2 -37 448.9100036621094 47" height="11.505627089679637" data-palette-color="#000000"><path d="M14.75 0.6L14.75 0.6Q10.35 0.6 7.28-1 4.2-2.6 2-5.3L2-5.3 5.9-8.95Q7.75-6.7 9.98-5.55 12.2-4.4 15.05-4.4L15.05-4.4Q18.4-4.4 20.1-5.9 21.8-7.4 21.8-9.95L21.8-9.95Q21.8-12 20.6-13.2 19.4-14.4 16.35-15L16.35-15 13.25-15.55Q8.15-16.5 5.6-18.9 3.05-21.3 3.05-25.5L3.05-25.5Q3.05-27.8 3.93-29.68 4.8-31.55 6.38-32.83 7.95-34.1 10.2-34.8 12.45-35.5 15.25-35.5L15.25-35.5Q19.2-35.5 22.1-34.13 25-32.75 27.05-30.15L27.05-30.15 23.1-26.65Q21.75-28.4 19.8-29.45 17.85-30.5 14.95-30.5L14.95-30.5Q11.95-30.5 10.3-29.3 8.65-28.1 8.65-25.8L8.65-25.8Q8.65-23.6 10-22.53 11.35-21.45 14.2-20.9L14.2-20.9 17.3-20.25Q22.55-19.25 24.98-16.85 27.4-14.45 27.4-10.25L27.4-10.25Q27.4-7.8 26.55-5.8 25.7-3.8 24.08-2.38 22.45-0.95 20.1-0.18 17.75 0.6 14.75 0.6ZM44 0.6L44 0.6Q41.3 0.6 39.07-0.35 36.85-1.3 35.3-3.08 33.75-4.85 32.9-7.38 32.05-9.9 32.05-13L32.05-13Q32.05-16.1 32.9-18.63 33.75-21.15 35.3-22.93 36.85-24.7 39.07-25.65 41.3-26.6 44-26.6L44-26.6Q46.7-26.6 48.92-25.65 51.15-24.7 52.7-22.93 54.25-21.15 55.1-18.63 55.95-16.1 55.95-13L55.95-13Q55.95-9.9 55.1-7.38 54.25-4.85 52.7-3.08 51.15-1.3 48.92-0.35 46.7 0.6 44 0.6ZM44-3.9L44-3.9Q46.8-3.9 48.5-5.63 50.2-7.35 50.2-10.8L50.2-10.8 50.2-15.2Q50.2-18.65 48.5-20.38 46.8-22.1 44-22.1L44-22.1Q41.2-22.1 39.5-20.38 37.8-18.65 37.8-15.2L37.8-15.2 37.8-10.8Q37.8-7.35 39.5-5.63 41.2-3.9 44-3.9ZM63.05 0L63.05-21.55 59.1-21.55 59.1-26 63.05-26 63.05-30.3Q63.05-33.45 64.7-35.23 66.35-37 69.65-37L69.65-37 73.95-37 73.95-32.55 68.5-32.55 68.5-26 73.95-26 73.95-21.55 68.5-21.55 68.5 0 63.05 0ZM90.64 0L85.89 0Q83.04 0 81.59-1.48 80.14-2.95 80.14-5.65L80.14-5.65 80.14-21.55 76.09-21.55 76.09-26 78.29-26Q79.64-26 80.17-26.6 80.69-27.2 80.69-28.55L80.69-28.55 80.69-33.1 85.59-33.1 85.59-26 91.04-26 91.04-21.55 85.59-21.55 85.59-4.45 90.64-4.45 90.64 0ZM101.44 0L94.34-26 99.64-26 102.29-15.1 104.64-5.25 104.79-5.25 107.49-15.1 110.64-26 115.54-26 118.74-15.1 121.49-5.25 121.64-5.25 123.94-15.1 126.64-26 131.69-26 124.69 0 118.54 0 115.14-11.85 113.04-19.15 112.94-19.15 110.89-11.85 107.44 0 101.44 0ZM158.44 0L155.39 0Q153.24 0 152.09-1.23 150.94-2.45 150.69-4.35L150.69-4.35 150.44-4.35Q149.69-1.9 147.69-0.65 145.69 0.6 142.84 0.6L142.84 0.6Q138.79 0.6 136.61-1.5 134.44-3.6 134.44-7.15L134.44-7.15Q134.44-11.05 137.26-13 140.09-14.95 145.54-14.95L145.54-14.95 150.24-14.95 150.24-17.15Q150.24-19.55 148.94-20.85 147.64-22.15 144.89-22.15L144.89-22.15Q142.59-22.15 141.14-21.15 139.69-20.15 138.69-18.6L138.69-18.6 135.44-21.55Q136.74-23.75 139.09-25.18 141.44-26.6 145.24-26.6L145.24-26.6Q150.29-26.6 152.99-24.25 155.69-21.9 155.69-17.5L155.69-17.5 155.69-4.45 158.44-4.45 158.44 0ZM144.39-3.55L144.39-3.55Q146.94-3.55 148.59-4.67 150.24-5.8 150.24-7.7L150.24-7.7 150.24-11.45 145.64-11.45Q139.99-11.45 139.99-7.95L139.99-7.95 139.99-7.05Q139.99-5.3 141.16-4.42 142.34-3.55 144.39-3.55ZM169.23 0L163.78 0 163.78-26 169.23-26 169.23-21 169.48-21Q170.03-23 171.78-24.5 173.53-26 176.63-26L176.63-26 178.08-26 178.08-20.75 175.94-20.75Q172.69-20.75 170.96-19.7 169.23-18.65 169.23-16.6L169.23-16.6 169.23 0ZM192.88 0.6L192.88 0.6Q190.08 0.6 187.88-0.35 185.68-1.3 184.13-3.08 182.58-4.85 181.76-7.38 180.93-9.9 180.93-13L180.93-13Q180.93-16.1 181.76-18.63 182.58-21.15 184.13-22.93 185.68-24.7 187.88-25.65 190.08-26.6 192.88-26.6L192.88-26.6Q195.73-26.6 197.91-25.6 200.08-24.6 201.53-22.83 202.98-21.05 203.71-18.7 204.43-16.35 204.43-13.65L204.43-13.65 204.43-11.6 186.58-11.6 186.58-10.75Q186.58-7.75 188.36-5.83 190.13-3.9 193.43-3.9L193.43-3.9Q195.83-3.9 197.48-4.95 199.13-6 200.28-7.8L200.28-7.8 203.48-4.65Q202.03-2.25 199.28-0.83 196.53 0.6 192.88 0.6ZM192.88-22.35L192.88-22.35Q191.48-22.35 190.31-21.85 189.13-21.35 188.31-20.45 187.48-19.55 187.03-18.3 186.58-17.05 186.58-15.55L186.58-15.55 186.58-15.2 198.68-15.2 198.68-15.7Q198.68-18.7 197.13-20.53 195.58-22.35 192.88-22.35ZM222.68 0L222.68-34.9 235.03-34.9Q238.38-34.9 241.1-33.8 243.83-32.7 245.75-30.53 247.68-28.35 248.73-25.08 249.78-21.8 249.78-17.45L249.78-17.45Q249.78-13.1 248.73-9.83 247.68-6.55 245.75-4.38 243.83-2.2 241.1-1.1 238.38 0 235.03 0L235.03 0 222.68 0ZM228.33-5L235.03-5Q238.93-5 241.33-7.45 243.73-9.9 243.73-14.65L243.73-14.65 243.73-20.25Q243.73-25 241.33-27.45 238.93-29.9 235.03-29.9L235.03-29.9 228.33-29.9 228.33-5ZM266.63 0.6L266.63 0.6Q263.83 0.6 261.63-0.35 259.43-1.3 257.88-3.08 256.33-4.85 255.5-7.38 254.68-9.9 254.68-13L254.68-13Q254.68-16.1 255.5-18.63 256.33-21.15 257.88-22.93 259.43-24.7 261.63-25.65 263.83-26.6 266.63-26.6L266.63-26.6Q269.48-26.6 271.65-25.6 273.83-24.6 275.28-22.83 276.73-21.05 277.45-18.7 278.18-16.35 278.18-13.65L278.18-13.65 278.18-11.6 260.33-11.6 260.33-10.75Q260.33-7.75 262.1-5.83 263.88-3.9 267.18-3.9L267.18-3.9Q269.58-3.9 271.23-4.95 272.88-6 274.03-7.8L274.03-7.8 277.23-4.65Q275.78-2.25 273.03-0.83 270.28 0.6 266.63 0.6ZM266.63-22.35L266.63-22.35Q265.23-22.35 264.05-21.85 262.88-21.35 262.05-20.45 261.23-19.55 260.78-18.3 260.33-17.05 260.33-15.55L260.33-15.55 260.33-15.2 272.43-15.2 272.43-15.7Q272.43-18.7 270.88-20.53 269.33-22.35 266.63-22.35ZM295.82 0L289.42 0 280.57-26 285.97-26 289.92-14.15 292.57-5.05 292.87-5.05 295.52-14.15 299.57-26 304.77-26 295.82 0ZM319.17 0.6L319.17 0.6Q316.37 0.6 314.17-0.35 311.97-1.3 310.42-3.08 308.87-4.85 308.05-7.38 307.22-9.9 307.22-13L307.22-13Q307.22-16.1 308.05-18.63 308.87-21.15 310.42-22.93 311.97-24.7 314.17-25.65 316.37-26.6 319.17-26.6L319.17-26.6Q322.02-26.6 324.2-25.6 326.37-24.6 327.82-22.83 329.27-21.05 330-18.7 330.72-16.35 330.72-13.65L330.72-13.65 330.72-11.6 312.87-11.6 312.87-10.75Q312.87-7.75 314.65-5.83 316.42-3.9 319.72-3.9L319.72-3.9Q322.12-3.9 323.77-4.95 325.42-6 326.57-7.8L326.57-7.8 329.77-4.65Q328.32-2.25 325.57-0.83 322.82 0.6 319.17 0.6ZM319.17-22.35L319.17-22.35Q317.77-22.35 316.6-21.85 315.42-21.35 314.6-20.45 313.77-19.55 313.32-18.3 312.87-17.05 312.87-15.55L312.87-15.55 312.87-15.2 324.97-15.2 324.97-15.7Q324.97-18.7 323.42-20.53 321.87-22.35 319.17-22.35ZM345.82 0L342.32 0Q339.52 0 338.14-1.43 336.77-2.85 336.77-5.4L336.77-5.4 336.77-37 342.22-37 342.22-4.45 345.82-4.45 345.82 0ZM361.22 0.6L361.22 0.6Q358.52 0.6 356.29-0.35 354.07-1.3 352.52-3.08 350.97-4.85 350.12-7.38 349.27-9.9 349.27-13L349.27-13Q349.27-16.1 350.12-18.63 350.97-21.15 352.52-22.93 354.07-24.7 356.29-25.65 358.52-26.6 361.22-26.6L361.22-26.6Q363.92-26.6 366.14-25.65 368.37-24.7 369.92-22.93 371.47-21.15 372.32-18.63 373.17-16.1 373.17-13L373.17-13Q373.17-9.9 372.32-7.38 371.47-4.85 369.92-3.08 368.37-1.3 366.14-0.35 363.92 0.6 361.22 0.6ZM361.22-3.9L361.22-3.9Q364.02-3.9 365.72-5.63 367.42-7.35 367.42-10.8L367.42-10.8 367.42-15.2Q367.42-18.65 365.72-20.38 364.02-22.1 361.22-22.1L361.22-22.1Q358.42-22.1 356.72-20.38 355.02-18.65 355.02-15.2L355.02-15.2 355.02-10.8Q355.02-7.35 356.72-5.63 358.42-3.9 361.22-3.9ZM379.21 10L379.21-26 384.66-26 384.66-21.7 384.91-21.7Q385.76-24.05 387.69-25.33 389.61-26.6 392.21-26.6L392.21-26.6Q397.16-26.6 399.86-23.03 402.56-19.45 402.56-13L402.56-13Q402.56-6.55 399.86-2.98 397.16 0.6 392.21 0.6L392.21 0.6Q389.61 0.6 387.69-0.7 385.76-2 384.91-4.3L384.91-4.3 384.66-4.3 384.66 10 379.21 10ZM390.56-4.1L390.56-4.1Q393.41-4.1 395.11-5.93 396.81-7.75 396.81-10.75L396.81-10.75 396.81-15.25Q396.81-18.25 395.11-20.08 393.41-21.9 390.56-21.9L390.56-21.9Q388.06-21.9 386.36-20.68 384.66-19.45 384.66-17.45L384.66-17.45 384.66-8.55Q384.66-6.55 386.36-5.33 388.06-4.1 390.56-4.1ZM419.01 0.6L419.01 0.6Q416.21 0.6 414.01-0.35 411.81-1.3 410.26-3.08 408.71-4.85 407.89-7.38 407.06-9.9 407.06-13L407.06-13Q407.06-16.1 407.89-18.63 408.71-21.15 410.26-22.93 411.81-24.7 414.01-25.65 416.21-26.6 419.01-26.6L419.01-26.6Q421.86-26.6 424.04-25.6 426.21-24.6 427.66-22.83 429.11-21.05 429.84-18.7 430.56-16.35 430.56-13.65L430.56-13.65 430.56-11.6 412.71-11.6 412.71-10.75Q412.71-7.75 414.49-5.83 416.26-3.9 419.56-3.9L419.56-3.9Q421.96-3.9 423.61-4.95 425.26-6 426.41-7.8L426.41-7.8 429.61-4.65Q428.16-2.25 425.41-0.83 422.66 0.6 419.01 0.6ZM419.01-22.35L419.01-22.35Q417.61-22.35 416.44-21.85 415.26-21.35 414.44-20.45 413.61-19.55 413.16-18.3 412.71-17.05 412.71-15.55L412.71-15.55 412.71-15.2 424.81-15.2 424.81-15.7Q424.81-18.7 423.26-20.53 421.71-22.35 419.01-22.35ZM442.06 0L436.61 0 436.61-26 442.06-26 442.06-21 442.31-21Q442.86-23 444.61-24.5 446.36-26 449.46-26L449.46-26 450.91-26 450.91-20.75 448.76-20.75Q445.51-20.75 443.78-19.7 442.06-18.65 442.06-16.6L442.06-16.6 442.06 0Z" opacity="1" transform="matrix(1,0,0,1,0,0)" fill="#000000" class="undefined-text-1" data-fill-palette-color="quaternary" id="text-1"></path></svg></g></svg></g></svg></g></svg></g><g><svg viewBox="0 0 208.98519752677015 155.2151797739004" height="155.2151797739004" width="208.98519752677015"><g><svg xmlns="http://www.w3.org/2000/svg" xmlns:xlink="http://www.w3.org/1999/xlink" version="1.1" x="0" y="0" viewBox="7.5 18.434999465942383 85.0009994506836 63.131004333496094" enable-background="new 0 0 100 100" xml:space="preserve" height="155.2151797739004" width="208.98519752677015" class="icon-icon-0" data-fill-palette-color="quaternary" id="icon-0"><g fill="#000000" data-fill-palette-color="quaternary"><path d="M89.405 18.435H10.595c-1.706 0-3.095 1.389-3.095 3.095v56.941c0 1.706 1.389 3.095 3.095 3.095h78.811c1.707 0 3.095-1.389 3.095-3.095V77.14 32.027 21.529C92.5 19.823 91.112 18.435 89.405 18.435zM10.595 19.673h78.811c1.023 0 1.857 0.833 1.857 1.856v9.075c-0.068-0.01-0.136-0.021-0.207-0.021H8.951c-0.073 0-0.143 0.011-0.213 0.021v-9.076C8.738 20.506 9.571 19.673 10.595 19.673zM91.263 77.14c0 0.114-0.093 0.206-0.207 0.206H8.951c-0.113 0-0.206-0.092-0.206-0.206V32.027c0-0.113 0.093-0.206 0.206-0.206h82.104c0.114 0 0.207 0.093 0.207 0.206V77.14zM89.405 80.327H10.595c-0.992 0-1.798-0.784-1.848-1.764 0.067 0.01 0.135 0.021 0.204 0.021h82.104c0.068 0 0.133-0.011 0.197-0.02C91.202 79.544 90.396 80.327 89.405 80.327z" fill="#000000" data-fill-palette-color="quaternary"></path><path d="M28.178 27.787c1.45 0 2.63-1.18 2.63-2.63 0-1.451-1.18-2.631-2.63-2.631s-2.631 1.18-2.631 2.631C25.547 26.607 26.728 27.787 28.178 27.787zM28.178 23.765c0.768 0 1.393 0.624 1.393 1.393 0 0.768-0.625 1.393-1.393 1.393-0.769 0-1.393-0.625-1.393-1.393C26.785 24.389 27.409 23.765 28.178 23.765z" fill="#000000" data-fill-palette-color="quaternary"></path><path d="M21.458 27.787c1.451 0 2.631-1.18 2.631-2.63 0-1.451-1.18-2.631-2.631-2.631-1.45 0-2.63 1.18-2.63 2.631C18.828 26.607 20.008 27.787 21.458 27.787zM21.458 23.765c0.769 0 1.393 0.624 1.393 1.393 0 0.768-0.624 1.393-1.393 1.393-0.768 0-1.393-0.625-1.393-1.393C20.065 24.389 20.69 23.765 21.458 23.765z" fill="#000000" data-fill-palette-color="quaternary"></path><path d="M14.738 27.787c1.451 0 2.631-1.18 2.631-2.63 0-1.451-1.18-2.631-2.631-2.631-1.45 0-2.63 1.18-2.63 2.631C12.108 26.607 13.288 27.787 14.738 27.787zM14.738 23.765c0.769 0 1.393 0.624 1.393 1.393 0 0.768-0.624 1.393-1.393 1.393-0.768 0-1.393-0.625-1.393-1.393C13.346 24.389 13.971 23.765 14.738 23.765z" fill="#000000" data-fill-palette-color="quaternary"></path></g><path d="M26.598 65.915c-0.624 0-1.395-0.429-2.289-1.276-1.605-1.519-2.16-2.371-1.2-3.405l8.79-8.811-8.774-8.782c-0.676-0.676-0.57-1.195-0.401-1.57 0.242-0.544 0.814-1.117 1.479-1.781 0.829-0.829 1.542-1.542 2.241-1.542 0.342 0 0.679 0.172 1.033 0.526l11.769 11.755c0.311 0.254 0.521 0.659 0.564 1.134 0.048 0.537-0.134 1.152-0.452 1.533L27.53 65.514C27.243 65.787 26.941 65.915 26.598 65.915zM23.846 42.57c-0.009 0 0.027 0.068 0.154 0.194l9.211 9.221c0.241 0.242 0.241 0.633 0 0.875L24 62.093c-0.093 0.1-0.125 0.147-0.133 0.166 0.012 0.047 0.125 0.377 1.292 1.48 0.979 0.927 1.42 0.938 1.438 0.938v0.619l0.01-0.62c-0.001 0.001-0.001 0.001-0.001 0.001-0.003 0 0.02-0.012 0.061-0.05l11.777-11.767c0.061-0.077 0.151-0.357 0.131-0.589-0.013-0.145-0.063-0.246-0.162-0.328L26.601 40.148c-0.144-0.143-0.215-0.171-0.215-0.171-0.182 0.06-0.886 0.764-1.307 1.184-0.531 0.532-1.077 1.078-1.227 1.413C23.85 42.571 23.848 42.57 23.846 42.57z" fill="#000000" data-fill-palette-color="quaternary"></path><path d="M55.834 71.436H40.498c-1.594 0-1.92-1.234-1.92-3.088s0.326-3.088 1.92-3.088h15.336c1.503 0 1.787 1.085 1.787 3.088C57.621 70.396 57.346 71.436 55.834 71.436zM40.498 66.497c-0.366 0-0.683 0-0.683 1.851s0.316 1.851 0.683 1.851h15.336c0.354 0 0.55 0 0.55-1.851s-0.219-1.851-0.55-1.851H40.498z" fill="#000000" data-fill-palette-color="quaternary"></path></svg></g></svg></g><g></g></svg></g></svg></g></svg></g><defs></defs></svg><rect width="512" height="320" fill="none" stroke="none" visibility="hidden"></rect></g></svg></g></svg>