<?xml version="1.0" encoding="UTF-8" standalone="no"?>
<svg
   xmlns:dc="http://purl.org/dc/elements/1.1/"
   xmlns:cc="http://creativecommons.org/ns#"
   xmlns:rdf="http://www.w3.org/1999/02/22-rdf-syntax-ns#"
   xmlns:svg="http://www.w3.org/2000/svg"
   xmlns="http://www.w3.org/2000/svg"
   xmlns:sodipodi="http://sodipodi.sourceforge.net/DTD/sodipodi-0.dtd"
   xmlns:inkscape="http://www.inkscape.org/namespaces/inkscape"
   version="1.1"
   width="272.03052"
   height="296.95053"
   viewBox="0 0 272.03051 296.95053"
   id="svg73"
   sodipodi:docname="logoNOback2.svg"
   inkscape:version="1.0.2 (e86c870879, 2021-01-15, custom)">
  <metadata
     id="metadata79">
    <rdf:RDF>
      <cc:Work
         rdf:about="">
        <dc:format>image/svg+xml</dc:format>
        <dc:type
           rdf:resource="http://purl.org/dc/dcmitype/StillImage" />
        <dc:title></dc:title>
      </cc:Work>
    </rdf:RDF>
  </metadata>
  <defs
     id="defs77" />
  <sodipodi:namedview
     pagecolor="#ffffff"
     bordercolor="#666666"
     borderopacity="1"
     objecttolerance="10"
     gridtolerance="10"
     guidetolerance="10"
     inkscape:pageopacity="0"
     inkscape:pageshadow="2"
     inkscape:window-width="1152"
     inkscape:window-height="510"
     id="namedview75"
     showgrid="false"
     fit-margin-top="0"
     fit-margin-left="0"
     fit-margin-right="0"
     fit-margin-bottom="0"
     inkscape:zoom="0.293904"
     inkscape:cx="65.884106"
     inkscape:cy="201.05027"
     inkscape:window-x="329"
     inkscape:window-y="35"
     inkscape:window-maximized="0"
     inkscape:current-layer="tight-bounds" />
  <g
     transform="translate(1180.6437,1254.3615)"
     id="g71">
    <g
       id="tight-bounds"
       transform="translate(0.24,114.4)">
      <svg
         viewBox="0 0 395.52 247.2"
         height="247.2"
         width="395.51999"
         version="1.1"
         id="svg64">
        <g
           id="g4">
          <svg
             version="1.1"
             id="svg2"
             width="100%"
             height="100%" />
        </g>
        <svg
           viewBox="0 0 395.52 247.2"
           height="247.2"
           width="395.51999"
           version="1.1"
           id="svg58">
          <g
             transform="matrix(2.9234937,0,0,2.9234937,62.920429,5.8200992)"
             id="g52">
            <svg
               viewBox="0 0 102.08444 152.7696"
               height="152.76961"
               width="102.08444"
               version="1.1"
               id="svg50">
              <g
                 id="g48">
                <svg
                   viewBox="0 0 161.92685 242.32389"
                   height="152.76961"
                   width="102.08444"
                   version="1.1"
                   id="svg46">
                  <g
                     id="g44" />
                </svg>
              </g>
            </svg>
          </g>
        </svg>
        <defs
           id="defs62" />
      </svg>
      <g
         id="g1816"
         transform="matrix(0.0523685,0,0,0.05488568,-982.98529,-1234.2014)">
        <g
           transform="matrix(19.145369,0,0,19.145369,-716.23944,-1850.5245)"
           id="g21">
          <svg
             viewBox="0 0 161.92685 152.7696"
             height="152.76961"
             width="161.92685"
             version="1.1"
             id="svg19">
            <g
               id="g17"
               transform="matrix(0.84801454,0,0,0.84801454,-41.853082,30.367894)">
              <svg
                 viewBox="0 0 161.92685 152.7696"
                 height="152.76961"
                 width="161.92685"
                 version="1.1"
                 id="svg15">
                <g
                   id="g13">
                  <svg
                     viewBox="0 0 161.92685 152.7696"
                     height="152.76961"
                     width="161.92685"
                     version="1.1"
                     id="svg11">
                    <g
                       id="g9">
                      <svg
                         width="161.92685"
                         viewBox="19.346385 -6.2274098 34.233489 32.297535"
                         height="152.76961"
                         data-palette-color="#915eff"
                         version="1.1"
                         id="svg7">
                        <path
                           style="color:#000000;font-style:normal;font-variant:normal;font-weight:normal;font-stretch:normal;font-size:medium;line-height:normal;font-family:sans-serif;font-variant-ligatures:normal;font-variant-position:normal;font-variant-caps:normal;font-variant-numeric:normal;font-variant-alternates:normal;font-variant-east-asian:normal;font-feature-settings:normal;font-variation-settings:normal;text-indent:0;text-align:start;text-decoration:none;text-decoration-line:none;text-decoration-style:solid;text-decoration-color:#000000;letter-spacing:normal;word-spacing:normal;text-transform:none;writing-mode:lr-tb;direction:ltr;text-orientation:mixed;dominant-baseline:auto;baseline-shift:baseline;text-anchor:start;white-space:normal;shape-padding:0;shape-margin:0;inline-size:0;clip-rule:nonzero;display:inline;overflow:visible;visibility:visible;opacity:1;isolation:auto;mix-blend-mode:normal;color-interpolation:sRGB;color-interpolation-filters:linearRGB;solid-color:#000000;solid-opacity:1;vector-effect:none;fill:#915eff;fill-opacity:1;fill-rule:nonzero;stroke:none;stroke-width:1;stroke-linecap:butt;stroke-linejoin:miter;stroke-miterlimit:4;stroke-dasharray:none;stroke-dashoffset:0;stroke-opacity:1;color-rendering:auto;image-rendering:auto;shape-rendering:auto;text-rendering:auto;enable-background:accumulate;stop-color:#000000;stop-opacity:1"
                           d="M 34.193,26.064 21.278,24.978 c -0.824,-0.069 -1.361,-0.325 -1.611,-0.768 -0.25,-0.443 -0.354,-0.92 -0.311,-1.431 v 0 L 21.285,-0.17 c 0.089,-1.063 0.775,-1.54 2.058,-1.432 v 0 c 1.329,0.112 1.948,0.699 1.859,1.762 v 0 l -1.819,21.623 11.091,0.933 c 0.797,0.067 1.15,0.642 1.06,1.725 v 0 c -0.05,1.153 -0.497,1.694 -1.341,1.623 z M 49.748,18.263 41.286,-3.8 c -0.382,-0.996 0.037,-1.728 1.258,-2.195 v 0 c 1.245,-0.477 2.058,-0.218 2.44,0.777 v 0 l 8.461,22.063 c 0.382,0.996 -0.05,1.733 -1.294,2.211 v 0 c -1.22,0.468 -2.021,0.204 -2.403,-0.793 z M 31.819,-0.169 40.28,21.894 c 0.382,0.996 -0.05,1.733 -1.294,2.211 v 0 c -1.22,0.468 -2.021,0.204 -2.403,-0.793 v 0 L 28.121,1.249 c -0.382,-0.996 0.037,-1.728 1.258,-2.195 v 0 c 1.245,-0.477 2.058,-0.218 2.44,0.777 z m 11.315,7.721 v 0 c 0.279,0.728 0.265,1.437 -0.042,2.126 -0.307,0.689 -0.822,1.172 -1.543,1.448 v 0 c -0.71,0.272 -1.409,0.255 -2.098,-0.052 -0.689,-0.307 -1.173,-0.825 -1.453,-1.553 v 0 C 37.721,8.799 37.736,8.093 38.043,7.405 38.35,6.716 38.858,6.236 39.568,5.963 v 0 c 0.722,-0.277 1.428,-0.262 2.117,0.045 0.689,0.307 1.172,0.822 1.449,1.544 z"
                           id="text-0" />
                      </svg>
                    </g>
                  </svg>
                </g>
              </svg>
            </g>
          </svg>
        </g>
        <rect
           width="600.33472"
           height="375.2092"
           fill="none"
           stroke="none"
           visibility="hidden"
           id="rect66"
           x="-204.81473"
           y="0"
           style="stroke-width:1.51784" />
      </g>
    </g>
  </g>
</svg>
