<?xml version="1.0" encoding="UTF-8" standalone="no"?>
<svg
   xmlns:dc="http://purl.org/dc/elements/1.1/"
   xmlns:cc="http://creativecommons.org/ns#"
   xmlns:rdf="http://www.w3.org/1999/02/22-rdf-syntax-ns#"
   xmlns:svg="http://www.w3.org/2000/svg"
   xmlns="http://www.w3.org/2000/svg"
   xmlns:sodipodi="http://sodipodi.sourceforge.net/DTD/sodipodi-0.dtd"
   xmlns:inkscape="http://www.inkscape.org/namespaces/inkscape"
   version="1.1"
   width="400"
   height="300"
   viewBox="0 0 257.43185 240.38309"
   id="svg73"
   sodipodi:docname="logoNOback.svg"
   inkscape:version="1.0.2 (e86c870879, 2021-01-15, custom)">
  <metadata
     id="metadata79">
    <rdf:RDF>
      <cc:Work
         rdf:about="">
        <dc:format>image/svg+xml</dc:format>
        <dc:type
           rdf:resource="http://purl.org/dc/dcmitype/StillImage" />
        <dc:title></dc:title>
      </cc:Work>
    </rdf:RDF>
  </metadata>
  <defs
     id="defs77" />
  <sodipodi:namedview
     pagecolor="#ffffff"
     bordercolor="#666666"
     borderopacity="1"
     objecttolerance="10"
     gridtolerance="10"
     guidetolerance="10"
     inkscape:pageopacity="0"
     inkscape:pageshadow="2"
     inkscape:window-width="1536"
     inkscape:window-height="841"
     id="namedview75"
     showgrid="false"
     fit-margin-top="0"
     fit-margin-left="0"
     fit-margin-right="0"
     fit-margin-bottom="0"
     inkscape:zoom="1.3478254"
     inkscape:cx="223.33379"
     inkscape:cy="147.47482"
     inkscape:window-x="-8"
     inkscape:window-y="-3"
     inkscape:window-maximized="1"
     inkscape:current-layer="svg58" />
  <g
     transform="translate(-166.30435,-180.0502)"
     id="g71">
    <g
       id="tight-bounds"
       transform="translate(0.24,114.4)">
      <svg
         viewBox="0 0 395.52 247.2"
         height="247.2"
         width="395.51999"
         version="1.1"
         id="svg64">
        <g
           id="g4">
          <svg
             version="1.1"
             id="svg2"
             width="100%"
             height="100%" />
        </g>
        <svg
           viewBox="0 0 395.52 247.2"
           height="247.2"
           width="395.51999"
           version="1.1"
           id="svg58">
          <g
             transform="matrix(1.4351329,0,0,1.4351329,211.00918,82.225801)"
             id="g52">
            <svg
               viewBox="0 0 102.08444 152.7696"
               height="152.76961"
               width="102.08444"
               version="1.1"
               id="svg50">
              <g
                 id="g48">
                <svg
                   viewBox="0 0 161.92685 242.32389"
                   height="152.76961"
                   width="102.08444"
                   version="1.1"
                   id="svg46">
                  <g
                     transform="translate(0,89.554294)"
                     id="g21">
                    <svg
                       viewBox="0 0 161.92685 152.7696"
                       height="152.76961"
                       width="161.92685"
                       version="1.1"
                       id="svg19">
                      <g
                         id="g17">
                        <svg
                           viewBox="0 0 161.92685 152.7696"
                           height="152.76961"
                           width="161.92685"
                           version="1.1"
                           id="svg15">
                          <g
                             id="g13">
                            <svg
                               viewBox="0 0 161.92685 152.7696"
                               height="152.76961"
                               width="161.92685"
                               version="1.1"
                               id="svg11">
                              <g
                                 id="g9">
                                <svg
                                   width="161.92685"
                                   viewBox="19.346385 -6.2274098 34.233489 60"
                                   height="152.76961"
                                   data-palette-color="#915eff"
                                   version="1.1"
                                   id="svg7">
                                <path
                                   style="color:#000000;font-style:normal;font-variant:normal;font-weight:normal;font-stretch:normal;font-size:medium;line-height:normal;font-family:sans-serif;font-variant-ligatures:normal;font-variant-position:normal;font-variant-caps:normal;font-variant-numeric:normal;font-variant-alternates:normal;font-variant-east-asian:normal;font-feature-settings:normal;font-variation-settings:normal;text-indent:0;text-align:start;text-decoration:none;text-decoration-line:none;text-decoration-style:solid;text-decoration-color:#000000;letter-spacing:normal;word-spacing:normal;text-transform:none;writing-mode:lr-tb;direction:ltr;text-orientation:mixed;dominant-baseline:auto;baseline-shift:baseline;text-anchor:start;white-space:normal;shape-padding:0;shape-margin:0;inline-size:0;clip-rule:nonzero;display:inline;overflow:visible;visibility:visible;opacity:1;isolation:auto;mix-blend-mode:normal;color-interpolation:sRGB;color-interpolation-filters:linearRGB;solid-color:#000000;solid-opacity:1;vector-effect:none;fill:#915eff;fill-opacity:1;fill-rule:nonzero;stroke:none;stroke-width:1;stroke-linecap:butt;stroke-linejoin:miter;stroke-miterlimit:4;stroke-dasharray:none;stroke-dashoffset:0;stroke-opacity:1;color-rendering:auto;image-rendering:auto;shape-rendering:auto;text-rendering:auto;enable-background:accumulate;stop-color:#000000;stop-opacity:1"
                                   d="M 34.193,26.064 21.278,24.978 c -0.824,-0.069 -1.361,-0.325 -1.611,-0.768 -0.25,-0.443 -0.354,-0.92 -0.311,-1.431 v 0 L 21.285,-0.17 c 0.089,-1.063 0.775,-1.54 2.058,-1.432 v 0 c 1.329,0.112 1.948,0.699 1.859,1.762 v 0 l -1.819,21.623 11.091,0.933 c 0.797,0.067 1.15,0.642 1.06,1.725 v 0 c -0.05,1.153 -0.497,1.694 -1.341,1.623 z M 49.748,18.263 41.286,-3.8 c -0.382,-0.996 0.037,-1.728 1.258,-2.195 v 0 c 1.245,-0.477 2.058,-0.218 2.44,0.777 v 0 l 8.461,22.063 c 0.382,0.996 -0.05,1.733 -1.294,2.211 v 0 c -1.22,0.468 -2.021,0.204 -2.403,-0.793 z M 31.819,-0.169 40.28,21.894 c 0.382,0.996 -0.05,1.733 -1.294,2.211 v 0 c -1.22,0.468 -2.021,0.204 -2.403,-0.793 v 0 L 28.121,1.249 c -0.382,-0.996 0.037,-1.728 1.258,-2.195 v 0 c 1.245,-0.477 2.058,-0.218 2.44,0.777 z m 11.315,7.721 v 0 c 0.279,0.728 0.265,1.437 -0.042,2.126 -0.307,0.689 -0.822,1.172 -1.543,1.448 v 0 c -0.71,0.272 -1.409,0.255 -2.098,-0.052 -0.689,-0.307 -1.173,-0.825 -1.453,-1.553 v 0 C 37.721,8.799 37.736,8.093 38.043,7.405 38.35,6.716 38.858,6.236 39.568,5.963 v 0 c 0.722,-0.277 1.428,-0.262 2.117,0.045 0.689,0.307 1.172,0.822 1.449,1.544 z"
                                   id="text-0" />
                                </svg>
                              </g>
                            </svg>
                          </g>
                        </svg>
                      </g>
                    </svg>
                  </g>
                  <g
                     transform="translate(30.928028)"
                     id="g42">
                    <svg
                       viewBox="0 0 100.07079 74.323468"
                       height="74.323471"
                       width="100.07079"
                       version="1.1"
                       id="svg40">
                      <g
                         id="g38">
                        <svg
                           version="1.1"
                           x="0"
                           y="0"
                           viewBox="7.5 18.435 85.001 63.131"
                           enable-background="new 0 0 100 100"
                           xml:space="preserve"
                           height="74.323471"
                           width="100.07079"
                           class="icon-icon-0"
                           data-fill-palette-color="accent"
                           id="icon-0"><g
                             fill="#f1ebff"
                             data-fill-palette-color="accent"
                             id="g31"><path
                               style="color:#000000;font-style:normal;font-variant:normal;font-weight:normal;font-stretch:normal;font-size:medium;line-height:normal;font-family:sans-serif;font-variant-ligatures:normal;font-variant-position:normal;font-variant-caps:normal;font-variant-numeric:normal;font-variant-alternates:normal;font-variant-east-asian:normal;font-feature-settings:normal;font-variation-settings:normal;text-indent:0;text-align:start;text-decoration:none;text-decoration-line:none;text-decoration-style:solid;text-decoration-color:#000000;letter-spacing:normal;word-spacing:normal;text-transform:none;writing-mode:lr-tb;direction:ltr;text-orientation:mixed;dominant-baseline:auto;baseline-shift:baseline;text-anchor:start;white-space:normal;shape-padding:0;shape-margin:0;inline-size:0;clip-rule:nonzero;display:inline;overflow:visible;visibility:visible;opacity:1;isolation:auto;mix-blend-mode:normal;color-interpolation:sRGB;color-interpolation-filters:linearRGB;solid-color:#000000;solid-opacity:1;vector-effect:none;fill:#f1ebff;fill-opacity:1;fill-rule:nonzero;stroke:none;stroke-width:1;stroke-linecap:butt;stroke-linejoin:miter;stroke-miterlimit:4;stroke-dasharray:none;stroke-dashoffset:0;stroke-opacity:1;color-rendering:auto;image-rendering:auto;shape-rendering:auto;text-rendering:auto;enable-background:accumulate;stop-color:#000000;stop-opacity:1"
                               d="M 89.405,18.435 H 10.595 C 8.889,18.435 7.5,19.824 7.5,21.53 v 56.941 c 0,1.706 1.389,3.095 3.095,3.095 h 78.811 c 1.707,0 3.095,-1.389 3.095,-3.095 V 77.14 32.027 21.529 C 92.5,19.823 91.112,18.435 89.405,18.435 Z m -78.81,1.238 h 78.811 c 1.023,0 1.857,0.833 1.857,1.856 v 9.075 c -0.068,-0.01 -0.136,-0.021 -0.207,-0.021 H 8.951 c -0.073,0 -0.143,0.011 -0.213,0.021 v -9.076 c 0,-1.022 0.833,-1.855 1.857,-1.855 z M 91.263,77.14 c 0,0.114 -0.093,0.206 -0.207,0.206 H 8.951 c -0.113,0 -0.206,-0.092 -0.206,-0.206 V 32.027 c 0,-0.113 0.093,-0.206 0.206,-0.206 h 82.104 c 0.114,0 0.207,0.093 0.207,0.206 V 77.14 Z m -1.858,3.187 h -78.81 c -0.992,0 -1.798,-0.784 -1.848,-1.764 0.067,0.01 0.135,0.021 0.204,0.021 h 82.104 c 0.068,0 0.133,-0.011 0.197,-0.02 -0.05,0.98 -0.856,1.763 -1.847,1.763 z"
                               id="path23" /><path
                               style="color:#000000;font-style:normal;font-variant:normal;font-weight:normal;font-stretch:normal;font-size:medium;line-height:normal;font-family:sans-serif;font-variant-ligatures:normal;font-variant-position:normal;font-variant-caps:normal;font-variant-numeric:normal;font-variant-alternates:normal;font-variant-east-asian:normal;font-feature-settings:normal;font-variation-settings:normal;text-indent:0;text-align:start;text-decoration:none;text-decoration-line:none;text-decoration-style:solid;text-decoration-color:#000000;letter-spacing:normal;word-spacing:normal;text-transform:none;writing-mode:lr-tb;direction:ltr;text-orientation:mixed;dominant-baseline:auto;baseline-shift:baseline;text-anchor:start;white-space:normal;shape-padding:0;shape-margin:0;inline-size:0;clip-rule:nonzero;display:inline;overflow:visible;visibility:visible;opacity:1;isolation:auto;mix-blend-mode:normal;color-interpolation:sRGB;color-interpolation-filters:linearRGB;solid-color:#000000;solid-opacity:1;vector-effect:none;fill:#f1ebff;fill-opacity:1;fill-rule:nonzero;stroke:none;stroke-width:1;stroke-linecap:butt;stroke-linejoin:miter;stroke-miterlimit:4;stroke-dasharray:none;stroke-dashoffset:0;stroke-opacity:1;color-rendering:auto;image-rendering:auto;shape-rendering:auto;text-rendering:auto;enable-background:accumulate;stop-color:#000000;stop-opacity:1"
                               d="m 28.178,27.787 c 1.45,0 2.63,-1.18 2.63,-2.63 0,-1.451 -1.18,-2.631 -2.63,-2.631 -1.45,0 -2.631,1.18 -2.631,2.631 0,1.45 1.181,2.63 2.631,2.63 z m 0,-4.022 c 0.768,0 1.393,0.624 1.393,1.393 0,0.768 -0.625,1.393 -1.393,1.393 -0.769,0 -1.393,-0.625 -1.393,-1.393 0,-0.769 0.624,-1.393 1.393,-1.393 z"
                               id="path25" /><path
                               style="color:#000000;font-style:normal;font-variant:normal;font-weight:normal;font-stretch:normal;font-size:medium;line-height:normal;font-family:sans-serif;font-variant-ligatures:normal;font-variant-position:normal;font-variant-caps:normal;font-variant-numeric:normal;font-variant-alternates:normal;font-variant-east-asian:normal;font-feature-settings:normal;font-variation-settings:normal;text-indent:0;text-align:start;text-decoration:none;text-decoration-line:none;text-decoration-style:solid;text-decoration-color:#000000;letter-spacing:normal;word-spacing:normal;text-transform:none;writing-mode:lr-tb;direction:ltr;text-orientation:mixed;dominant-baseline:auto;baseline-shift:baseline;text-anchor:start;white-space:normal;shape-padding:0;shape-margin:0;inline-size:0;clip-rule:nonzero;display:inline;overflow:visible;visibility:visible;opacity:1;isolation:auto;mix-blend-mode:normal;color-interpolation:sRGB;color-interpolation-filters:linearRGB;solid-color:#000000;solid-opacity:1;vector-effect:none;fill:#f1ebff;fill-opacity:1;fill-rule:nonzero;stroke:none;stroke-width:1;stroke-linecap:butt;stroke-linejoin:miter;stroke-miterlimit:4;stroke-dasharray:none;stroke-dashoffset:0;stroke-opacity:1;color-rendering:auto;image-rendering:auto;shape-rendering:auto;text-rendering:auto;enable-background:accumulate;stop-color:#000000;stop-opacity:1"
                               d="m 21.458,27.787 c 1.451,0 2.631,-1.18 2.631,-2.63 0,-1.451 -1.18,-2.631 -2.631,-2.631 -1.45,0 -2.63,1.18 -2.63,2.631 0,1.45 1.18,2.63 2.63,2.63 z m 0,-4.022 c 0.769,0 1.393,0.624 1.393,1.393 0,0.768 -0.624,1.393 -1.393,1.393 -0.768,0 -1.393,-0.625 -1.393,-1.393 0,-0.769 0.625,-1.393 1.393,-1.393 z"
                               id="path27" /><path
                               style="color:#000000;font-style:normal;font-variant:normal;font-weight:normal;font-stretch:normal;font-size:medium;line-height:normal;font-family:sans-serif;font-variant-ligatures:normal;font-variant-position:normal;font-variant-caps:normal;font-variant-numeric:normal;font-variant-alternates:normal;font-variant-east-asian:normal;font-feature-settings:normal;font-variation-settings:normal;text-indent:0;text-align:start;text-decoration:none;text-decoration-line:none;text-decoration-style:solid;text-decoration-color:#000000;letter-spacing:normal;word-spacing:normal;text-transform:none;writing-mode:lr-tb;direction:ltr;text-orientation:mixed;dominant-baseline:auto;baseline-shift:baseline;text-anchor:start;white-space:normal;shape-padding:0;shape-margin:0;inline-size:0;clip-rule:nonzero;display:inline;overflow:visible;visibility:visible;opacity:1;isolation:auto;mix-blend-mode:normal;color-interpolation:sRGB;color-interpolation-filters:linearRGB;solid-color:#000000;solid-opacity:1;vector-effect:none;fill:#f1ebff;fill-opacity:1;fill-rule:nonzero;stroke:none;stroke-width:1;stroke-linecap:butt;stroke-linejoin:miter;stroke-miterlimit:4;stroke-dasharray:none;stroke-dashoffset:0;stroke-opacity:1;color-rendering:auto;image-rendering:auto;shape-rendering:auto;text-rendering:auto;enable-background:accumulate;stop-color:#000000;stop-opacity:1"
                               d="m 14.738,27.787 c 1.451,0 2.631,-1.18 2.631,-2.63 0,-1.451 -1.18,-2.631 -2.631,-2.631 -1.45,0 -2.63,1.18 -2.63,2.631 0,1.45 1.18,2.63 2.63,2.63 z m 0,-4.022 c 0.769,0 1.393,0.624 1.393,1.393 0,0.768 -0.624,1.393 -1.393,1.393 -0.768,0 -1.393,-0.625 -1.393,-1.393 10e-4,-0.769 0.626,-1.393 1.393,-1.393 z"
                               id="path29" /></g><path
                             style="color:#000000;font-style:normal;font-variant:normal;font-weight:normal;font-stretch:normal;font-size:medium;line-height:normal;font-family:sans-serif;font-variant-ligatures:normal;font-variant-position:normal;font-variant-caps:normal;font-variant-numeric:normal;font-variant-alternates:normal;font-variant-east-asian:normal;font-feature-settings:normal;font-variation-settings:normal;text-indent:0;text-align:start;text-decoration:none;text-decoration-line:none;text-decoration-style:solid;text-decoration-color:#000000;letter-spacing:normal;word-spacing:normal;text-transform:none;writing-mode:lr-tb;direction:ltr;text-orientation:mixed;dominant-baseline:auto;baseline-shift:baseline;text-anchor:start;white-space:normal;shape-padding:0;shape-margin:0;inline-size:0;clip-rule:nonzero;display:inline;overflow:visible;visibility:visible;opacity:1;isolation:auto;mix-blend-mode:normal;color-interpolation:sRGB;color-interpolation-filters:linearRGB;solid-color:#000000;solid-opacity:1;vector-effect:none;fill:#f1ebff;fill-opacity:1;fill-rule:nonzero;stroke:none;stroke-width:1;stroke-linecap:butt;stroke-linejoin:miter;stroke-miterlimit:4;stroke-dasharray:none;stroke-dashoffset:0;stroke-opacity:1;color-rendering:auto;image-rendering:auto;shape-rendering:auto;text-rendering:auto;enable-background:accumulate;stop-color:#000000;stop-opacity:1"
                             d="m 26.598,65.915 c -0.624,0 -1.395,-0.429 -2.289,-1.276 -1.605,-1.519 -2.16,-2.371 -1.2,-3.405 l 8.79,-8.811 -8.774,-8.782 c -0.676,-0.676 -0.57,-1.195 -0.401,-1.57 0.242,-0.544 0.814,-1.117 1.479,-1.781 0.829,-0.829 1.542,-1.542 2.241,-1.542 0.342,0 0.679,0.172 1.033,0.526 l 11.769,11.755 c 0.311,0.254 0.521,0.659 0.564,1.134 0.048,0.537 -0.134,1.152 -0.452,1.533 L 27.53,65.514 c -0.287,0.273 -0.589,0.401 -0.932,0.401 z M 23.846,42.57 c -0.009,0 0.027,0.068 0.154,0.194 l 9.211,9.221 c 0.241,0.242 0.241,0.633 0,0.875 L 24,62.093 c -0.093,0.1 -0.125,0.147 -0.133,0.166 0.012,0.047 0.125,0.377 1.292,1.48 0.979,0.927 1.42,0.938 1.438,0.938 v 0.619 l 0.01,-0.62 -10e-4,0.001 c -0.003,0 0.02,-0.012 0.061,-0.05 L 38.444,52.86 c 0.061,-0.077 0.151,-0.357 0.131,-0.589 -0.013,-0.145 -0.063,-0.246 -0.162,-0.328 L 26.601,40.148 c -0.144,-0.143 -0.215,-0.171 -0.215,-0.171 -0.182,0.06 -0.886,0.764 -1.307,1.184 -0.531,0.532 -1.077,1.078 -1.227,1.413 C 23.85,42.571 23.848,42.57 23.846,42.57 Z"
                             id="path33" /><path
                             style="color:#000000;font-style:normal;font-variant:normal;font-weight:normal;font-stretch:normal;font-size:medium;line-height:normal;font-family:sans-serif;font-variant-ligatures:normal;font-variant-position:normal;font-variant-caps:normal;font-variant-numeric:normal;font-variant-alternates:normal;font-variant-east-asian:normal;font-feature-settings:normal;font-variation-settings:normal;text-indent:0;text-align:start;text-decoration:none;text-decoration-line:none;text-decoration-style:solid;text-decoration-color:#000000;letter-spacing:normal;word-spacing:normal;text-transform:none;writing-mode:lr-tb;direction:ltr;text-orientation:mixed;dominant-baseline:auto;baseline-shift:baseline;text-anchor:start;white-space:normal;shape-padding:0;shape-margin:0;inline-size:0;clip-rule:nonzero;display:inline;overflow:visible;visibility:visible;opacity:1;isolation:auto;mix-blend-mode:normal;color-interpolation:sRGB;color-interpolation-filters:linearRGB;solid-color:#000000;solid-opacity:1;vector-effect:none;fill:#f1ebff;fill-opacity:1;fill-rule:nonzero;stroke:none;stroke-width:1;stroke-linecap:butt;stroke-linejoin:miter;stroke-miterlimit:4;stroke-dasharray:none;stroke-dashoffset:0;stroke-opacity:1;color-rendering:auto;image-rendering:auto;shape-rendering:auto;text-rendering:auto;enable-background:accumulate;stop-color:#000000;stop-opacity:1"
                             d="M 55.834,71.436 H 40.498 c -1.594,0 -1.92,-1.234 -1.92,-3.088 0,-1.854 0.326,-3.088 1.92,-3.088 h 15.336 c 1.503,0 1.787,1.085 1.787,3.088 0,2.048 -0.275,3.088 -1.787,3.088 z M 40.498,66.497 c -0.366,0 -0.683,0 -0.683,1.851 0,1.851 0.316,1.851 0.683,1.851 h 15.336 c 0.354,0 0.55,0 0.55,-1.851 0,-1.851 -0.219,-1.851 -0.55,-1.851 z"
                             id="path35" /></svg>
                      </g>
                    </svg>
                  </g>
                  <g
                     id="g44" />
                </svg>
              </g>
            </svg>
          </g>
        </svg>
        <defs
           id="defs62" />
      </svg>
      <rect
         width="395.51999"
         height="247.2"
         fill="none"
         stroke="none"
         visibility="hidden"
         id="rect66"
         x="0"
         y="0" />
    </g>
  </g>
</svg>
